<svg width="42" height="42" viewBox="0 0 42 42" fill="none" xmlns="http://www.w3.org/2000/svg">
<path d="M21 36C29.2843 36 36 29.2843 36 21C36 12.7157 29.2843 6 21 6C12.7157 6 6 12.7157 6 21C6 29.2843 12.7157 36 21 36Z" fill="#E38617"/>
<path d="M20.6134 35.6019C28.6841 35.6019 35.2267 29.0354 35.2267 20.9352C35.2267 12.835 28.6841 6.26855 20.6134 6.26855C12.5426 6.26855 6 12.835 6 20.9352C6 29.0354 12.5426 35.6019 20.6134 35.6019Z" fill="#FCBE23"/>
<path d="M20.7051 6.28369C28.7752 6.28369 35.3185 12.8509 35.3185 20.9504C35.3185 29.0499 28.7752 35.617 20.7051 35.617C12.6351 35.617 6.0918 29.0499 6.0918 20.9504C6.0918 12.8509 12.6351 6.28369 20.7051 6.28369ZM31.5214 20.9504C31.5214 14.9504 26.6387 10.0897 20.6159 10.0897C14.5931 10.0897 9.71044 14.9504 9.71044 20.9504C9.71044 26.9504 14.5931 31.8111 20.6159 31.8111C26.6387 31.8111 31.5214 26.9454 31.5214 20.9504Z" fill="#FCBE23"/>
<path d="M20.6145 10.0896C26.6373 10.0896 31.52 14.9503 31.52 20.9503C31.52 26.9503 26.6373 31.811 20.6145 31.811C14.5917 31.811 9.70898 26.9503 9.70898 20.9503C9.70898 14.9503 14.5966 10.0896 20.6145 10.0896Z" fill="#F8AB24"/>
<path opacity="0.6" d="M30.5434 16.0945C30.2262 15.4676 29.8494 14.8756 29.4182 14.3234C28.972 13.7463 28.4615 13.2139 27.9063 12.7363C27.7179 12.5721 27.5246 12.4179 27.3213 12.2686C26.8851 11.9403 26.4192 11.6468 25.9383 11.388C25.4872 11.1443 25.0163 10.9353 24.5256 10.7562C23.3359 10.3184 22.0421 10.0796 20.6987 10.0796C14.6264 10.0796 9.70898 14.9403 9.70898 20.9403C9.70898 23.1542 10.3782 25.2139 11.5282 26.9303C12.2519 28.0099 13.164 28.9552 14.2199 29.7164C14.2199 29.7164 14.2248 29.7164 14.2248 29.7214C15.3848 30.5572 16.7182 31.1741 18.1607 31.5124C18.1855 31.5174 18.2103 31.5224 18.2351 31.5273C19.0282 31.7065 19.8511 31.801 20.6987 31.801C21.6455 31.801 22.5675 31.6816 23.4449 31.4577C23.4747 31.4478 23.5044 31.4428 23.5342 31.4328C28.2285 30.199 31.6885 25.9652 31.6885 20.9403C31.6935 19.199 31.2771 17.5522 30.5434 16.0945ZM14.2595 29.6667C13.2186 28.8856 12.3164 27.9254 11.6125 26.8259C10.5219 25.1343 9.89239 23.1144 9.89239 20.9453C9.89239 14.9453 14.7354 10.0846 20.7087 10.0846C22.0471 10.0846 23.3309 10.3283 24.5107 10.7761C25.512 11.1542 26.4489 11.6766 27.2817 12.3234L14.2595 29.6667Z" fill="#EA931E"/>
<g opacity="0.56">
<path d="M31.1871 21.1243C31.088 26.8606 26.3342 31.4228 20.5741 31.3233C14.814 31.2188 10.2238 26.4875 10.3279 20.7511C10.427 15.0148 15.1808 10.4526 20.9409 10.5521C26.701 10.6566 31.2912 15.3929 31.1871 21.1243Z" stroke="#D6810E" stroke-width="20.0819" stroke-miterlimit="10"/>
</g>
<path opacity="0.2" d="M14.2525 29.7365L14.2178 29.7813L14.1286 29.8957L11.8682 32.7017C11.8682 32.7017 10.0291 31.2738 9.12695 29.9753L11.5609 26.9653L11.6055 27.035C12.3094 28.1345 13.2066 28.9554 14.2525 29.7365C14.2476 29.7315 14.2476 29.7315 14.2525 29.7365Z" fill="white"/>
<path opacity="0.2" d="M30.2397 9.81584L27.9446 12.6865L27.895 12.7462C27.7116 12.582 27.5232 12.4278 27.3299 12.2785C26.507 11.6417 25.59 11.1243 24.6035 10.7462L24.6233 10.7213L27.0374 7.70142C27.0374 7.70142 29.2036 8.81584 30.2397 9.81584Z" fill="white"/>
<path opacity="0.2" d="M16.1255 30.791C16.7203 31.0746 17.3498 31.2985 17.9992 31.4676L15.4216 34.6318C15.4216 34.6318 13.8998 34 13.6816 33.8209L16.1255 30.791Z" fill="white"/>
<mask id="path-10-inside-1_1_11536" fill="white">
<path d="M21.2175 28.24C19.6175 28.24 18.405 27.8525 17.58 27.0775C16.76 26.2975 16.35 25.145 16.35 23.62V15.625H19.245V22.7725C19.245 23.7325 19.3925 24.41 19.6875 24.805C19.9875 25.2 20.495 25.3975 21.21 25.3975C21.93 25.3975 22.4375 25.2 22.7325 24.805C23.0325 24.41 23.1825 23.7325 23.1825 22.7725V15.625H26.0775V23.62C26.0775 25.145 25.6675 26.2975 24.8475 27.0775C24.0275 27.8525 22.8175 28.24 21.2175 28.24Z"/>
</mask>
<g filter="url(#filter0_i_1_11536)">
<path d="M21.2175 28.24C19.6175 28.24 18.405 27.8525 17.58 27.0775C16.76 26.2975 16.35 25.145 16.35 23.62V15.625H19.245V22.7725C19.245 23.7325 19.3925 24.41 19.6875 24.805C19.9875 25.2 20.495 25.3975 21.21 25.3975C21.93 25.3975 22.4375 25.2 22.7325 24.805C23.0325 24.41 23.1825 23.7325 23.1825 22.7725V15.625H26.0775V23.62C26.0775 25.145 25.6675 26.2975 24.8475 27.0775C24.0275 27.8525 22.8175 28.24 21.2175 28.24Z" fill="white"/>
</g>
<path d="M17.58 27.0775L15.5124 29.2512L15.5191 29.2576L15.526 29.264L17.58 27.0775ZM16.35 15.625V12.625H13.35V15.625H16.35ZM19.245 15.625H22.245V12.625H19.245V15.625ZM19.6875 24.805L17.2839 26.6001L17.2911 26.6098L17.2984 26.6195L19.6875 24.805ZM22.7325 24.805L20.3434 22.9905L20.3361 23.0002L20.3289 23.0099L22.7325 24.805ZM23.1825 15.625V12.625H20.1825V15.625H23.1825ZM26.0775 15.625H29.0775V12.625H26.0775V15.625ZM24.8475 27.0775L26.9082 29.2578L26.9151 29.2512L24.8475 27.0775ZM21.2175 25.24C20.0645 25.24 19.7086 24.961 19.634 24.891L15.526 29.264C17.1014 30.744 19.1705 31.24 21.2175 31.24V25.24ZM19.6476 24.9038C19.608 24.8662 19.35 24.6195 19.35 23.62H13.35C13.35 25.6705 13.912 27.7288 15.5124 29.2512L19.6476 24.9038ZM19.35 23.62V15.625H13.35V23.62H19.35ZM16.35 18.625H19.245V12.625H16.35V18.625ZM16.245 15.625V22.7725H22.245V15.625H16.245ZM16.245 22.7725C16.245 23.8603 16.3768 25.3856 17.2839 26.6001L22.0911 23.0099C22.1909 23.1434 22.2432 23.2537 22.2671 23.3116C22.2909 23.3692 22.2932 23.3911 22.287 23.3624C22.2809 23.3346 22.2698 23.273 22.2606 23.1704C22.2514 23.0685 22.245 22.9371 22.245 22.7725H16.245ZM17.2984 26.6195C18.3853 28.0505 19.9922 28.3975 21.21 28.3975V22.3975C21.1144 22.3975 21.1982 22.3824 21.3811 22.4536C21.5911 22.5353 21.8594 22.7046 22.0766 22.9905L17.2984 26.6195ZM21.21 28.3975C22.4195 28.3975 24.0481 28.057 25.1361 26.6001L20.3289 23.0099C20.5521 22.7109 20.8294 22.5366 21.0426 22.4536C21.2276 22.3816 21.3111 22.3975 21.21 22.3975V28.3975ZM25.1216 26.6195C26.047 25.401 26.1825 23.866 26.1825 22.7725H20.1825C20.1825 22.9358 20.1761 23.0657 20.1669 23.1659C20.1576 23.2668 20.1466 23.3264 20.1409 23.3521C20.1351 23.3787 20.138 23.3546 20.163 23.2951C20.1882 23.2351 20.2421 23.124 20.3434 22.9905L25.1216 26.6195ZM26.1825 22.7725V15.625H20.1825V22.7725H26.1825ZM23.1825 18.625H26.0775V12.625H23.1825V18.625ZM23.0775 15.625V23.62H29.0775V15.625H23.0775ZM23.0775 23.62C23.0775 24.6195 22.8195 24.8662 22.7799 24.9038L26.9151 29.2512C28.5155 27.7288 29.0775 25.6705 29.0775 23.62H23.0775ZM22.7868 24.8972C22.72 24.9604 22.372 25.24 21.2175 25.24V31.24C23.263 31.24 25.335 30.7446 26.9082 29.2578L22.7868 24.8972Z" fill="#FAE0AD" mask="url(#path-10-inside-1_1_11536)"/>
<path opacity="0.2" d="M33.0222 13.0399L30.5189 16.1643C30.2215 15.5325 29.8596 14.9354 29.4531 14.3782L31.8226 11.3882C31.8226 11.3882 32.7 12.4976 33.0222 13.0399Z" fill="white"/>
<defs>
<filter id="filter0_i_1_11536" x="16.3496" y="15.625" width="9.72754" height="12.615" filterUnits="userSpaceOnUse" color-interpolation-filters="sRGB">
<feFlood flood-opacity="0" result="BackgroundImageFix"/>
<feBlend mode="normal" in="SourceGraphic" in2="BackgroundImageFix" result="shape"/>
<feColorMatrix in="SourceAlpha" type="matrix" values="0 0 0 0 0 0 0 0 0 0 0 0 0 0 0 0 0 0 127 0" result="hardAlpha"/>
<feOffset/>
<feGaussianBlur stdDeviation="5"/>
<feComposite in2="hardAlpha" operator="arithmetic" k2="-1" k3="1"/>
<feColorMatrix type="matrix" values="0 0 0 0 0 0 0 0 0 0 0 0 0 0 0 0 0 0 0.38 0"/>
<feBlend mode="normal" in2="shape" result="effect1_innerShadow_1_11536"/>
</filter>
</defs>
</svg>
