<svg width="173" height="118" viewBox="0 0 173 118" fill="none" xmlns="http://www.w3.org/2000/svg">
<path d="M29.6781 52.625C27.7837 54.6342 24.6539 54.6913 22.6874 52.7527L3.56041 33.8962C1.59393 31.9575 1.53547 28.7571 3.42983 26.7479L27.9624 0.728192C28.3412 0.326353 28.9672 0.314918 29.3605 0.702651L54.1845 25.1756C54.5778 25.5633 54.5895 26.2034 54.2106 26.6052L29.6781 52.625Z" fill="white"/>
<path d="M57.4906 83.438C55.5962 85.4472 52.4664 85.5043 50.4999 83.5657L32.0228 65.3498C30.0563 63.4112 29.9979 60.2108 31.8922 58.2016L86.0812 0.727601C86.4601 0.325762 87.086 0.314327 87.4793 0.70206L111.653 24.5343C112.047 24.922 112.058 25.5621 111.68 25.964L57.4906 83.438Z" fill="white"/>
<path d="M89.2298 114.362C87.3355 116.371 84.2057 116.429 82.2392 114.49L62.5284 95.0579C60.5619 93.1193 60.5034 89.9189 62.3978 87.9097L144.597 0.727881C144.976 0.326042 145.601 0.314607 145.995 0.70234L171.403 25.7508C171.796 26.1385 171.808 26.7786 171.429 27.1804L89.2298 114.362Z" fill="white"/>
</svg>
