<svg width="75" height="75" viewBox="0 0 75 75" fill="none" xmlns="http://www.w3.org/2000/svg">
<path d="M31.25 23.4375C31.25 23.0231 31.4146 22.6257 31.7076 22.3326C32.0007 22.0396 32.3981 21.875 32.8125 21.875H45.3125C45.7269 21.875 46.1243 22.0396 46.4174 22.3326C46.7104 22.6257 46.875 23.0231 46.875 23.4375C46.875 23.8519 46.7104 24.2493 46.4174 24.5424C46.1243 24.8354 45.7269 25 45.3125 25H32.8125C32.3981 25 32.0007 24.8354 31.7076 24.5424C31.4146 24.2493 31.25 23.8519 31.25 23.4375ZM32.8125 28.125C32.3981 28.125 32.0007 28.2896 31.7076 28.5826C31.4146 28.8757 31.25 29.2731 31.25 29.6875C31.25 30.1019 31.4146 30.4993 31.7076 30.7924C32.0007 31.0854 32.3981 31.25 32.8125 31.25H45.3125C45.7269 31.25 46.1243 31.0854 46.4174 30.7924C46.7104 30.4993 46.875 30.1019 46.875 29.6875C46.875 29.2731 46.7104 28.8757 46.4174 28.5826C46.1243 28.2896 45.7269 28.125 45.3125 28.125H32.8125ZM31.25 43.75C31.25 43.3356 31.4146 42.9382 31.7076 42.6451C32.0007 42.3521 32.3981 42.1875 32.8125 42.1875H45.3125C45.7269 42.1875 46.1243 42.3521 46.4174 42.6451C46.7104 42.9382 46.875 43.3356 46.875 43.75C46.875 44.1644 46.7104 44.5618 46.4174 44.8549C46.1243 45.1479 45.7269 45.3125 45.3125 45.3125H32.8125C32.3981 45.3125 32.0007 45.1479 31.7076 44.8549C31.4146 44.5618 31.25 44.1644 31.25 43.75ZM32.8125 48.4375C32.3981 48.4375 32.0007 48.6021 31.7076 48.8951C31.4146 49.1882 31.25 49.5856 31.25 50C31.25 50.4144 31.4146 50.8118 31.7076 51.1049C32.0007 51.3979 32.3981 51.5625 32.8125 51.5625H45.3125C45.7269 51.5625 46.1243 51.3979 46.4174 51.1049C46.7104 50.8118 46.875 50.4144 46.875 50C46.875 49.5856 46.7104 49.1882 46.4174 48.8951C46.1243 48.6021 45.7269 48.4375 45.3125 48.4375H32.8125Z" fill="white"/>
<path fill-rule="evenodd" clip-rule="evenodd" d="M15.625 42.1875C15.625 41.7731 15.7896 41.3757 16.0826 41.0826C16.3757 40.7896 16.7731 40.625 17.1875 40.625H25C25.4144 40.625 25.8118 40.7896 26.1049 41.0826C26.3979 41.3757 26.5625 41.7731 26.5625 42.1875V50C26.5625 50.4144 26.3979 50.8118 26.1049 51.1049C25.8118 51.3979 25.4144 51.5625 25 51.5625H17.1875C16.7731 51.5625 16.3757 51.3979 16.0826 51.1049C15.7896 50.8118 15.625 50.4144 15.625 50V42.1875ZM18.75 43.75V48.4375H23.4375V43.75H18.75Z" fill="white"/>
<path d="M27.6672 24.5423C27.9518 24.2476 28.1093 23.8529 28.1058 23.4432C28.1022 23.0335 27.9379 22.6416 27.6482 22.3519C27.3585 22.0622 26.9666 21.8979 26.5569 21.8943C26.1472 21.8908 25.7525 22.0483 25.4578 22.3329L20.3125 27.4782L18.2922 25.4579C17.9975 25.1733 17.6028 25.0158 17.1931 25.0193C16.7835 25.0229 16.3916 25.1872 16.1019 25.4769C15.8122 25.7666 15.6478 26.1585 15.6443 26.5682C15.6407 26.9779 15.7982 27.3726 16.0828 27.6673L20.3125 31.897L27.6672 24.5423Z" fill="white"/>
<path fill-rule="evenodd" clip-rule="evenodd" d="M15.625 9.375C13.9674 9.375 12.3777 10.0335 11.2056 11.2056C10.0335 12.3777 9.375 13.9674 9.375 15.625V59.375C9.375 61.0326 10.0335 62.6223 11.2056 63.7944C12.3777 64.9665 13.9674 65.625 15.625 65.625H46.875C48.5326 65.625 50.1223 64.9665 51.2944 63.7944C52.4665 62.6223 53.125 61.0326 53.125 59.375V15.625C53.125 13.9674 52.4665 12.3777 51.2944 11.2056C50.1223 10.0335 48.5326 9.375 46.875 9.375H15.625ZM12.5 15.625C12.5 14.7962 12.8292 14.0013 13.4153 13.4153C14.0013 12.8292 14.7962 12.5 15.625 12.5H46.875C47.7038 12.5 48.4987 12.8292 49.0847 13.4153C49.6708 14.0013 50 14.7962 50 15.625V59.375C50 60.2038 49.6708 60.9987 49.0847 61.5847C48.4987 62.1708 47.7038 62.5 46.875 62.5H15.625C14.7962 62.5 14.0013 62.1708 13.4153 61.5847C12.8292 60.9987 12.5 60.2038 12.5 59.375V15.625ZM56.25 25C56.25 23.7568 56.7439 22.5645 57.6229 21.6854C58.502 20.8064 59.6943 20.3125 60.9375 20.3125C62.1807 20.3125 63.373 20.8064 64.2521 21.6854C65.1311 22.5645 65.625 23.7568 65.625 25V56.7234L60.9375 63.7547L56.25 56.7234V25ZM60.9375 23.4375C60.5231 23.4375 60.1257 23.6021 59.8326 23.8951C59.5396 24.1882 59.375 24.5856 59.375 25V28.125H62.5V25C62.5 24.5856 62.3354 24.1882 62.0424 23.8951C61.7493 23.6021 61.3519 23.4375 60.9375 23.4375ZM60.9375 58.1203L59.375 55.7766V31.25H62.5V55.7766L60.9375 58.1203Z" fill="white"/>
</svg>
