<svg width="75" height="67" viewBox="0 0 75 67" fill="none" xmlns="http://www.w3.org/2000/svg">
<path d="M75 25.4374C75.0016 24.4192 74.7335 23.4188 74.223 22.5378C73.7126 21.6568 72.9779 20.9267 72.0937 20.4218L40.5 1.67177C39.5894 1.14052 38.5542 0.860596 37.5 0.860596C36.4458 0.860596 35.4105 1.14052 34.5 1.67177L2.85936 20.4218C1.98501 20.9406 1.2607 21.678 0.757616 22.5615C0.254532 23.4449 -0.0100098 24.4441 -0.0100098 25.4608C-0.0100098 26.4775 0.254532 27.4767 0.757616 28.3602C1.2607 29.2437 1.98501 29.9811 2.85936 30.4999L11.8594 35.7499V48.9218C11.8648 49.9512 12.135 50.9619 12.6439 51.8567C13.1529 52.7515 13.8836 53.5004 14.7656 54.0311L34.6875 65.5155C35.577 66.008 36.577 66.2664 37.5937 66.2664C38.6105 66.2664 39.6105 66.008 40.5 65.5155L60.4219 54.0311C61.3039 53.5004 62.0346 52.7515 62.5435 51.8567C63.0525 50.9619 63.3227 49.9512 63.3281 48.9218V35.6093L69.1406 32.1874V44.9374H75V25.4374ZM57.5156 48.8749L37.5 60.4061L17.7187 48.9218V39.2186L34.5 49.203C35.4136 49.7251 36.4477 49.9997 37.5 49.9997C38.5523 49.9997 39.5863 49.7251 40.5 49.203L57.4687 39.078L57.5156 48.8749ZM37.5 44.1405L5.85936 25.3905L37.5 6.59364L69.1406 25.3436L37.5 44.1405Z" fill="white"/>
</svg>
