<svg width="76" height="76" viewBox="0 0 76 76" fill="none" xmlns="http://www.w3.org/2000/svg">
<path d="M32.9517 0.0941477C14.7812 0.0941477 0 14.8753 0 33.0458C0 51.2163 14.7812 65.9975 32.9517 65.9975C38.5064 65.9975 43.967 64.6794 48.5802 62.1375C48.9497 62.5821 49.3594 62.9918 49.8041 63.3614L59.2189 72.7761C60.0882 73.7543 61.1483 74.5445 62.3341 75.0982C63.5199 75.6519 64.8063 75.9573 66.1144 75.9958C67.4225 76.0344 68.7246 75.8051 69.9409 75.3221C71.1572 74.8392 72.262 74.1127 73.1873 73.1873C74.1127 72.262 74.8392 71.1572 75.3221 69.9409C75.8051 68.7246 76.0344 67.4225 75.9958 66.1144C75.9573 64.8063 75.6519 63.5199 75.0982 62.3341C74.5445 61.1483 73.7543 60.0882 72.7761 59.2189L63.3614 49.8041C62.9028 49.3453 62.398 48.9352 61.855 48.5802C64.397 43.967 65.9975 38.6005 65.9975 32.9517C65.9975 14.7812 51.2163 0 33.0458 0L32.9517 0.0941477ZM32.9517 9.50891C46.0382 9.50891 56.4886 19.9593 56.4886 33.0458C56.4886 39.2596 54.2291 45.0026 50.2749 49.2392C50.1807 49.3334 50.0866 49.4275 49.9924 49.5217C49.5477 49.8912 49.138 50.3009 48.7685 50.7456C44.626 54.5115 38.9771 56.6769 32.8575 56.6769C19.771 56.6769 9.32062 46.2265 9.32062 33.14C9.32062 20.0534 19.771 9.60306 32.8575 9.60306L32.9517 9.50891Z" fill="black"/>
</svg>
