<svg width="217" height="143" viewBox="0 0 217 143" fill="none" xmlns="http://www.w3.org/2000/svg">
<path d="M35.7785 63.402C33.8384 65.367 30.6357 65.4255 28.6251 63.5326L3.64093 40.0115C1.63033 38.1187 1.5732 34.9912 3.51333 33.0262L35.4179 0.71211C35.8059 0.319104 36.4465 0.307403 36.8486 0.685975L67.6576 29.6908C68.0597 30.0694 68.0711 30.6949 67.6831 31.0879L35.7785 63.402Z" fill="white"/>
<path d="M71.0969 100.745C69.1568 102.71 65.9541 102.769 63.9435 100.876L39.5206 77.883C37.51 75.9901 37.4529 72.8627 39.393 70.8976L108.688 0.712853C109.076 0.319847 109.717 0.308146 110.119 0.686718L140.367 29.1631C140.769 29.5417 140.78 30.1672 140.392 30.5602L71.0969 100.745Z" fill="white"/>
<path d="M111.687 138.513C109.747 140.478 106.544 140.537 104.533 138.644L77.9846 113.65C75.974 111.757 75.9169 108.629 77.857 106.664L182.467 0.711569C182.855 0.318557 183.496 0.306862 183.898 0.685434L216.271 31.1632C216.673 31.5418 216.685 32.1673 216.297 32.5603L111.687 138.513Z" fill="white"/>
</svg>
