<svg width="75" height="75" viewBox="0 0 75 75" fill="none" xmlns="http://www.w3.org/2000/svg">
<path d="M65.625 34.375V28.125H59.375V21.875C59.3701 20.2189 58.71 18.6321 57.539 17.461C56.3679 16.29 54.7811 15.6299 53.125 15.625H46.875V9.375H40.625V15.625H34.375V9.375H28.125V15.625H21.875C20.2189 15.6299 18.6321 16.29 17.461 17.461C16.29 18.6321 15.6299 20.2189 15.625 21.875V28.125H9.375V34.375H15.625V40.625H9.375V46.875H15.625V53.125C15.6299 54.7811 16.29 56.3679 17.461 57.539C18.6321 58.71 20.2189 59.3701 21.875 59.375H28.125V65.625H34.375V59.375H40.625V65.625H46.875V59.375H53.125C54.7811 59.3701 56.3679 58.71 57.539 57.539C58.71 56.3679 59.3701 54.7811 59.375 53.125V46.875H65.625V40.625H59.375V34.375H65.625ZM53.125 53.125H21.875V21.875H53.125V53.125Z" fill="white"/>
<path d="M35.5031 25H31.3L25.0187 50H28.2281L29.6781 44.1406H36.9156L38.3281 50H41.6469L35.5031 25ZM30.1 41.6375L33.2812 27.9687H33.425L36.4969 41.6375H30.1ZM44.5125 25H47.6375V50H44.5125V25Z" fill="white"/>
</svg>
