<svg width="63" height="66" viewBox="0 0 63 66" fill="none" xmlns="http://www.w3.org/2000/svg">
<path d="M59.625 25.25C60.4538 25.25 61.2487 24.9207 61.8347 24.3347C62.4208 23.7486 62.75 22.9538 62.75 22.125V12.75C62.75 12.0943 62.5435 11.4552 62.1598 10.9234C61.7761 10.3917 61.2348 9.99423 60.6125 9.78748L32.4875 0.412476C31.8464 0.199422 31.1536 0.199422 30.5125 0.412476L2.3875 9.78748C1.76523 9.99423 1.22386 10.3917 0.840191 10.9234C0.456519 11.4552 0.250025 12.0943 0.25 12.75V22.125C0.25 22.9538 0.57924 23.7486 1.16529 24.3347C1.75134 24.9207 2.5462 25.25 3.375 25.25H6.5V47.7C4.67715 48.342 3.09775 49.5326 1.97868 51.1083C0.859605 52.6839 0.255739 54.5674 0.25 56.5V62.75C0.25 63.5788 0.57924 64.3736 1.16529 64.9597C1.75134 65.5457 2.5462 65.875 3.375 65.875H59.625C60.4538 65.875 61.2487 65.5457 61.8347 64.9597C62.4208 64.3736 62.75 63.5788 62.75 62.75V56.5C62.7443 54.5674 62.1404 52.6839 61.0213 51.1083C59.9022 49.5326 58.3228 48.342 56.5 47.7V25.25H59.625ZM56.5 59.625H6.5V56.5C6.50083 55.6714 6.83033 54.877 7.4162 54.2912C8.00208 53.7053 8.79645 53.3758 9.625 53.375H53.375C54.2035 53.3758 54.9979 53.7053 55.5838 54.2912C56.1697 54.877 56.4992 55.6714 56.5 56.5V59.625ZM12.75 47.125V25.25H19V47.125H12.75ZM25.25 47.125V25.25H37.75V47.125H25.25ZM44 47.125V25.25H50.25V47.125H44ZM6.5 19V15L31.5 6.66873L56.5 15.0031V19H6.5Z" fill="white"/>
</svg>
