<svg width="78" height="78" viewBox="0 0 78 78" fill="none" xmlns="http://www.w3.org/2000/svg">
<path d="M39 0C17.4525 0 0 17.4525 0 39C0 60.5475 17.4525 78 39 78C60.5475 78 78 60.5475 78 39C78 17.4525 60.5475 0 39 0ZM39 9.75C42.2175 9.75 45.24 10.6275 48.165 11.6025C46.1175 13.5525 43.7775 15.3075 44.1675 17.0625C44.5575 18.8175 50.895 18.33 50.895 21.9375C50.895 24.57 46.8 25.35 49.6275 28.3725C53.04 31.785 43.3875 37.9275 43.1925 42.4125C42.9 50.505 51.3825 51.87 58.11 51.87C62.205 51.87 63.2775 53.82 62.985 56.16C57.72 63.6675 48.75 68.3475 38.9025 68.3475C35.1975 68.3475 31.785 67.47 28.5675 66.2025C30.7125 61.9125 25.8375 53.43 21.255 50.7C19.0125 48.4575 14.235 49.335 11.505 48.2625C10.6275 45.63 9.75 42.9975 9.6525 40.0725C9.945 39.585 10.4325 39.195 11.2125 39.195C13.065 39.195 15.6 42.9 16.965 42.51C18.72 42.12 9.75 29.7375 13.9425 27.3C15.8925 26.13 19.7925 31.1025 18.525 25.74C17.355 20.7675 22.035 23.01 24.96 21.7425C27.495 20.67 29.3475 17.745 26.2275 15.99C25.6425 15.6975 24.96 15.015 24.0825 14.1375C28.47 11.505 33.54 9.8475 39 9.8475V9.75ZM61.5225 20.3775C63.2775 22.5225 64.6425 24.8625 65.8125 27.3975V27.69C65.4225 28.3725 64.74 28.7625 63.6675 29.835C60.9375 32.565 60.5475 27.7875 59.3775 26.8125C58.11 25.6425 53.5275 27.0075 52.9425 25.545C52.26 23.79 57.8175 21.45 61.5225 20.3775Z" fill="black"/>
</svg>
