<svg width="73" height="73" viewBox="0 0 73 73" fill="none" xmlns="http://www.w3.org/2000/svg">
<path d="M31.9375 0C23.0863 0 15.1475 3.65 9.39875 9.39875L36.5 36.5V0.27375C35.04 0.09125 33.4888 0 31.9375 0ZM45.625 9.6725V40.7887L20.805 65.6087C26.3713 70.1712 33.3063 73 41.0625 73C58.6737 73 73 58.6737 73 41.0625C73 25.0025 61.0462 11.9537 45.625 9.6725ZM8.30375 21.6262C3.19375 26.5537 0 33.3975 0 41.0625C0 49.8225 4.1975 57.3963 10.585 62.415L30.0212 42.9788L8.30375 21.6262Z" fill="black"/>
</svg>
