<svg width="88" height="61" viewBox="0 0 88 61" fill="none" xmlns="http://www.w3.org/2000/svg">
<path d="M16.85 25.1284C14.9556 27.1376 11.8258 27.1948 9.8593 25.2561L3.56014 19.046C1.59366 17.1074 1.5352 13.907 3.42955 11.8978L13.9612 0.727719C14.34 0.325881 14.966 0.314445 15.3593 0.702178L27.3555 12.5287C27.7488 12.9164 27.7604 13.5565 27.3816 13.9583L16.85 25.1284Z" fill="#0A4577"/>
<path d="M31.0697 40.8825C29.1753 42.8917 26.0455 42.9489 24.079 41.0102L18.1121 35.1277C16.1457 33.1891 16.0872 29.9887 17.9816 27.9795L43.6761 0.727271C44.055 0.325432 44.681 0.313997 45.0743 0.70173L56.7382 12.2007C57.1315 12.5884 57.1431 13.2285 56.7643 13.6303L31.0697 40.8825Z" fill="#0A4577"/>
<path d="M47.2982 56.6938C45.4038 58.703 42.274 58.7602 40.3075 56.8215L33.7099 50.3172C31.7434 48.3785 31.685 45.1781 33.5793 43.1689L73.595 0.727481C73.9739 0.325642 74.5998 0.314207 74.9931 0.70194L87.2877 12.8227C87.681 13.2104 87.6927 13.8505 87.3139 14.2523L47.2982 56.6938Z" fill="#0A4577"/>
</svg>
