<svg width="60" height="41" viewBox="0 0 60 41" fill="none" xmlns="http://www.w3.org/2000/svg">
<path d="M12.6292 15.5895C10.7125 17.5775 7.54725 17.6353 5.55928 15.7187L3.59954 13.8293C1.61157 11.9127 1.55373 8.74735 3.47035 6.75938L9.293 0.719985C9.67633 0.322391 10.3094 0.310823 10.707 0.694147L18.426 8.13611C18.8236 8.51944 18.8351 9.1525 18.4518 9.55009L12.6292 15.5895Z" fill="white"/>
<path d="M22.3623 26.1307C20.4457 28.1187 17.2804 28.1765 15.2924 26.2599L13.5214 24.5524C11.5335 22.6358 11.4756 19.4705 13.3923 17.4826L29.5533 0.719883C29.9366 0.32229 30.5697 0.310721 30.9673 0.694046L38.4976 7.95404C38.8951 8.33737 38.9067 8.97043 38.5234 9.36802L22.3623 26.1307Z" fill="white"/>
<path d="M33.3805 36.6286C31.4639 38.6165 28.2986 38.6744 26.3106 36.7577L24.1559 34.6803C22.1679 32.7637 22.1101 29.5984 24.0267 27.6104L49.9522 0.719897C50.3355 0.322303 50.9685 0.310736 51.3661 0.69406L59.2801 8.32403C59.6777 8.70735 59.6893 9.34041 59.306 9.73801L33.3805 36.6286Z" fill="white"/>
</svg>
