<svg width="576" height="598" viewBox="0 0 576 598" fill="none" xmlns="http://www.w3.org/2000/svg">
<g clip-path="url(#clip0_85_26)">
<g filter="url(#filter0_d_85_26)">
<path d="M-327.463 1164.87L-365.644 1138.07L625.955 75.4664L664.137 102.273C672.049 107.828 591.302 205.748 483.912 320.828L-118.5 966.373C-225.89 1081.45 -319.483 1170.35 -327.395 1164.8L-327.463 1164.87Z" fill="#63A1F0"/>
</g>
<g filter="url(#filter1_d_85_26)">
<path d="M-71.397 1039.18L-113.438 1009.97L704.565 124.185L761.896 164.017L32.4202 953.936C-16.4256 1006.83 -62.9605 1045.04 -71.397 1039.18Z" fill="#336AB0"/>
</g>
<g filter="url(#filter2_d_85_26)">
<path d="M160.13 1012L74.5746 953.113L857.96 96.7958C900.722 50.0531 952.814 24.0716 974.224 38.8074L1048.72 90.0796L243.244 970.542C212.675 1003.96 175.456 1022.51 160.162 1011.98L160.13 1012Z" fill="#1E4B85"/>
</g>
<path d="M80.4612 205.926L67.3987 160.551H77.2987L85.8787 193.716L95.5587 160.551H102.241L111.894 193.716L120.474 160.551H130.401L117.311 205.926H107.411L98.8862 177.738L90.3887 205.926H80.4612ZM146.223 206.806C143.179 206.806 140.448 206.155 138.028 204.853C135.626 203.533 133.719 201.746 132.308 199.491C130.896 197.236 130.19 194.688 130.19 191.846C130.19 189.756 130.584 187.803 131.373 185.988C132.179 184.173 133.298 182.588 134.728 181.231C136.158 179.856 137.817 178.793 139.705 178.041C141.594 177.271 143.638 176.886 145.838 176.886C148.771 176.886 151.338 177.5 153.538 178.728C155.756 179.938 157.479 181.625 158.708 183.788C159.954 185.952 160.578 188.473 160.578 191.351C160.578 191.589 160.569 191.8 160.55 191.983C160.55 192.148 160.523 192.469 160.468 192.946H138.88C138.88 194.376 139.201 195.623 139.843 196.686C140.503 197.749 141.419 198.583 142.593 199.188C143.766 199.775 145.132 200.068 146.69 200.068C148.157 200.068 149.449 199.784 150.568 199.216C151.704 198.648 152.795 197.74 153.84 196.493L159.918 199.546C158.598 201.819 156.728 203.598 154.308 204.881C151.888 206.164 149.193 206.806 146.223 206.806ZM139.183 188.271H152.273C152.089 187.189 151.695 186.254 151.09 185.466C150.504 184.678 149.752 184.073 148.835 183.651C147.919 183.229 146.883 183.018 145.728 183.018C144.499 183.018 143.418 183.229 142.483 183.651C141.548 184.073 140.796 184.678 140.228 185.466C139.659 186.254 139.311 187.189 139.183 188.271ZM168.088 205.926V158.626H176.531V205.926H168.088ZM199.63 206.806C197.485 206.806 195.459 206.421 193.552 205.651C191.664 204.881 189.996 203.818 188.547 202.461C187.099 201.086 185.962 199.5 185.137 197.703C184.312 195.888 183.9 193.945 183.9 191.873C183.9 189.875 184.285 187.978 185.055 186.181C185.843 184.384 186.943 182.789 188.355 181.396C189.785 180.003 191.453 178.903 193.36 178.096C195.285 177.289 197.366 176.886 199.602 176.886C201.417 176.886 203.159 177.143 204.827 177.656C206.514 178.169 207.871 178.829 208.897 179.636L206.01 185.328C204.635 184.32 202.93 183.816 200.895 183.816C199.153 183.816 197.677 184.201 196.467 184.971C195.257 185.741 194.332 186.74 193.69 187.968C193.067 189.197 192.755 190.489 192.755 191.846C192.755 193.331 193.094 194.688 193.772 195.916C194.451 197.126 195.404 198.088 196.632 198.803C197.879 199.518 199.318 199.876 200.95 199.876C201.958 199.876 202.902 199.738 203.782 199.463C204.662 199.188 205.405 198.822 206.01 198.363L208.897 204.056C207.852 204.844 206.505 205.495 204.855 206.008C203.205 206.54 201.463 206.806 199.63 206.806ZM229.755 206.806C226.656 206.806 223.861 206.173 221.367 204.908C218.874 203.625 216.894 201.865 215.427 199.628C213.961 197.373 213.227 194.779 213.227 191.846C213.227 188.913 213.951 186.328 215.4 184.091C216.866 181.836 218.846 180.076 221.34 178.811C223.851 177.528 226.656 176.886 229.755 176.886C232.871 176.886 235.676 177.528 238.17 178.811C240.663 180.076 242.634 181.836 244.082 184.091C245.549 186.328 246.282 188.913 246.282 191.846C246.282 194.779 245.549 197.373 244.082 199.628C242.634 201.865 240.663 203.625 238.17 204.908C235.676 206.173 232.871 206.806 229.755 206.806ZM229.782 199.601C231.212 199.601 232.514 199.271 233.687 198.611C234.861 197.951 235.786 197.043 236.465 195.888C237.143 194.715 237.482 193.368 237.482 191.846C237.482 190.324 237.143 188.986 236.465 187.831C235.786 186.658 234.861 185.741 233.687 185.081C232.514 184.421 231.212 184.091 229.782 184.091C228.334 184.091 227.023 184.421 225.85 185.081C224.695 185.741 223.778 186.658 223.1 187.831C222.421 188.986 222.082 190.324 222.082 191.846C222.082 193.368 222.421 194.715 223.1 195.888C223.778 197.043 224.695 197.951 225.85 198.611C227.023 199.271 228.334 199.601 229.782 199.601ZM253.65 205.926V177.766H262.092V180.901C263.486 179.508 264.87 178.49 266.245 177.848C267.62 177.207 269.105 176.886 270.7 176.886C272.863 176.886 274.816 177.372 276.557 178.343C278.299 179.315 279.546 180.617 280.297 182.248C281.672 180.47 283.148 179.132 284.725 178.233C286.301 177.335 288.107 176.886 290.142 176.886C292.177 176.886 293.983 177.308 295.56 178.151C297.136 178.994 298.374 180.195 299.272 181.753C300.189 183.293 300.647 185.118 300.647 187.226V205.926H292.205V189.536C292.205 187.703 291.728 186.263 290.775 185.218C289.821 184.155 288.547 183.623 286.952 183.623C285.852 183.623 284.881 183.853 284.037 184.311C283.212 184.769 282.561 185.383 282.085 186.153C281.608 186.923 281.37 187.776 281.37 188.711V205.926H272.927V189.371C272.927 187.629 272.46 186.236 271.525 185.191C270.608 184.146 269.334 183.623 267.702 183.623C266.621 183.623 265.649 183.853 264.787 184.311C263.944 184.769 263.284 185.393 262.807 186.181C262.331 186.969 262.092 187.84 262.092 188.793V205.926H253.65ZM323.684 206.806C320.64 206.806 317.909 206.155 315.489 204.853C313.087 203.533 311.18 201.746 309.769 199.491C308.357 197.236 307.651 194.688 307.651 191.846C307.651 189.756 308.045 187.803 308.834 185.988C309.64 184.173 310.759 182.588 312.189 181.231C313.619 179.856 315.278 178.793 317.166 178.041C319.054 177.271 321.099 176.886 323.299 176.886C326.232 176.886 328.799 177.5 330.999 178.728C333.217 179.938 334.94 181.625 336.169 183.788C337.415 185.952 338.039 188.473 338.039 191.351C338.039 191.589 338.029 191.8 338.011 191.983C338.011 192.148 337.984 192.469 337.929 192.946H316.341C316.341 194.376 316.662 195.623 317.304 196.686C317.964 197.749 318.88 198.583 320.054 199.188C321.227 199.775 322.593 200.068 324.151 200.068C325.618 200.068 326.91 199.784 328.029 199.216C329.165 198.648 330.256 197.74 331.301 196.493L337.379 199.546C336.059 201.819 334.189 203.598 331.769 204.881C329.349 206.164 326.654 206.806 323.684 206.806ZM316.644 188.271H329.734C329.55 187.189 329.156 186.254 328.551 185.466C327.964 184.678 327.213 184.073 326.296 183.651C325.379 183.229 324.344 183.018 323.189 183.018C321.96 183.018 320.879 183.229 319.944 183.651C319.009 184.073 318.257 184.678 317.689 185.466C317.12 186.254 316.772 187.189 316.644 188.271ZM370.188 206.806C367.383 206.806 365.202 205.917 363.643 204.138C362.085 202.342 361.306 199.839 361.306 196.631V184.173H357.538V177.766H361.306V167.206H369.748V177.766H375.936V184.173H369.748V196.026C369.748 197.089 369.959 197.896 370.381 198.446C370.821 198.996 371.435 199.271 372.223 199.271C373.103 199.271 373.947 198.978 374.753 198.391L376.871 205.156C375.917 205.669 374.845 206.073 373.653 206.366C372.48 206.659 371.325 206.806 370.188 206.806ZM398.192 206.806C395.094 206.806 392.298 206.173 389.805 204.908C387.311 203.625 385.331 201.865 383.865 199.628C382.398 197.373 381.665 194.779 381.665 191.846C381.665 188.913 382.389 186.328 383.837 184.091C385.304 181.836 387.284 180.076 389.777 178.811C392.289 177.528 395.094 176.886 398.192 176.886C401.309 176.886 404.114 177.528 406.607 178.811C409.101 180.076 411.071 181.836 412.52 184.091C413.986 186.328 414.72 188.913 414.72 191.846C414.72 194.779 413.986 197.373 412.52 199.628C411.071 201.865 409.101 203.625 406.607 204.908C404.114 206.173 401.309 206.806 398.192 206.806ZM398.22 199.601C399.65 199.601 400.951 199.271 402.125 198.611C403.298 197.951 404.224 197.043 404.902 195.888C405.581 194.715 405.92 193.368 405.92 191.846C405.92 190.324 405.581 188.986 404.902 187.831C404.224 186.658 403.298 185.741 402.125 185.081C400.951 184.421 399.65 184.091 398.22 184.091C396.771 184.091 395.461 184.421 394.287 185.081C393.132 185.741 392.216 186.658 391.537 187.831C390.859 188.986 390.52 190.324 390.52 191.846C390.52 193.368 390.859 194.715 391.537 195.888C392.216 197.043 393.132 197.951 394.287 198.611C395.461 199.271 396.771 199.601 398.22 199.601ZM129.617 278.806C123.933 278.806 119.634 277.385 116.719 274.543C113.804 271.683 112.347 267.448 112.347 261.838V232.551H121.257V259.281C121.257 263.113 121.907 265.872 123.209 267.558C124.529 269.227 126.665 270.061 129.617 270.061C132.568 270.061 134.695 269.227 135.997 267.558C137.317 265.872 137.977 263.113 137.977 259.281V232.551H146.887V261.838C146.887 267.448 145.429 271.683 142.514 274.543C139.617 277.385 135.318 278.806 129.617 278.806ZM157.292 277.926V249.766H165.735V252.901C166.816 251.691 168.164 250.719 169.777 249.986C171.409 249.253 173.206 248.886 175.167 248.886C177.331 248.886 179.228 249.363 180.86 250.316C182.51 251.251 183.802 252.562 184.737 254.248C185.672 255.917 186.14 257.869 186.14 260.106V277.926H177.697V261.893C177.697 259.877 177.166 258.309 176.102 257.191C175.057 256.054 173.618 255.486 171.785 255.486C170.538 255.486 169.456 255.743 168.54 256.256C167.641 256.751 166.945 257.438 166.45 258.318C165.973 259.18 165.735 260.161 165.735 261.261V277.926H157.292ZM195.507 277.926V249.766H203.95V277.926H195.507ZM199.742 243.908C198.825 243.908 197.982 243.688 197.212 243.248C196.46 242.79 195.855 242.176 195.397 241.406C194.939 240.636 194.71 239.793 194.71 238.876C194.71 237.959 194.939 237.125 195.397 236.373C195.855 235.622 196.46 235.026 197.212 234.586C197.982 234.128 198.825 233.898 199.742 233.898C200.659 233.898 201.493 234.128 202.245 234.586C202.996 235.026 203.592 235.622 204.032 236.373C204.49 237.125 204.72 237.959 204.72 238.876C204.72 239.793 204.49 240.636 204.032 241.406C203.592 242.176 202.996 242.79 202.245 243.248C201.493 243.688 200.659 243.908 199.742 243.908ZM233.323 277.926L220.26 232.551H230.16L238.74 265.716L248.42 232.551H255.103L264.755 265.716L273.335 232.551H283.263L270.173 277.926H260.273L251.748 249.738L243.25 277.926H233.323ZM297.404 278.806C294.819 278.806 292.463 278.164 290.336 276.881C288.228 275.579 286.551 273.801 285.304 271.546C284.076 269.273 283.461 266.688 283.461 263.791C283.461 260.968 284.057 258.438 285.249 256.201C286.441 253.946 288.081 252.168 290.171 250.866C292.28 249.546 294.691 248.886 297.404 248.886C299.402 248.886 301.263 249.271 302.986 250.041C304.728 250.793 306.149 251.847 307.249 253.203V249.766H315.691V277.926H307.249V274.213C305.966 275.698 304.49 276.835 302.821 277.623C301.153 278.412 299.347 278.806 297.404 278.806ZM299.906 271.628C301.373 271.628 302.675 271.298 303.811 270.638C304.948 269.96 305.837 269.034 306.479 267.861C307.121 266.688 307.441 265.349 307.441 263.846C307.441 262.324 307.111 260.986 306.451 259.831C305.81 258.658 304.921 257.741 303.784 257.081C302.666 256.403 301.373 256.063 299.906 256.063C298.458 256.063 297.166 256.403 296.029 257.081C294.892 257.741 293.994 258.658 293.334 259.831C292.674 261.004 292.344 262.343 292.344 263.846C292.344 265.349 292.665 266.688 293.306 267.861C293.966 269.034 294.865 269.96 296.001 270.638C297.138 271.298 298.44 271.628 299.906 271.628ZM324.253 292.226L333.355 274.406L319.963 249.766H329.643L338.278 266.266L345.758 249.766H355.438L333.905 292.226H324.253ZM362.717 264.011L361.617 230.626H370.005L368.905 264.011H362.717ZM365.77 278.806C364.761 278.806 363.836 278.558 362.992 278.063C362.167 277.568 361.507 276.908 361.012 276.083C360.517 275.24 360.27 274.314 360.27 273.306C360.27 272.279 360.517 271.353 361.012 270.528C361.507 269.703 362.167 269.043 362.992 268.548C363.836 268.053 364.761 267.806 365.77 267.806C366.796 267.806 367.722 268.053 368.547 268.548C369.372 269.043 370.032 269.703 370.527 270.528C371.022 271.353 371.27 272.279 371.27 273.306C371.27 274.314 371.022 275.24 370.527 276.083C370.032 276.908 369.372 277.568 368.547 278.063C367.722 278.558 366.796 278.806 365.77 278.806Z" fill="#1E4B85"/>
</g>
<defs>
<filter id="filter0_d_85_26" x="-373.645" y="72.4664" width="1046.32" height="1105.58" filterUnits="userSpaceOnUse" color-interpolation-filters="sRGB">
<feFlood flood-opacity="0" result="BackgroundImageFix"/>
<feColorMatrix in="SourceAlpha" type="matrix" values="0 0 0 0 0 0 0 0 0 0 0 0 0 0 0 0 0 0 127 0" result="hardAlpha"/>
<feOffset dy="5"/>
<feGaussianBlur stdDeviation="4"/>
<feComposite in2="hardAlpha" operator="out"/>
<feColorMatrix type="matrix" values="0 0 0 0 0 0 0 0 0 0 0 0 0 0 0 0 0 0 0.25 0"/>
<feBlend mode="normal" in2="BackgroundImageFix" result="effect1_dropShadow_85_26"/>
<feBlend mode="normal" in="SourceGraphic" in2="effect1_dropShadow_85_26" result="shape"/>
</filter>
<filter id="filter1_d_85_26" x="-121.438" y="121.185" width="891.333" height="931.584" filterUnits="userSpaceOnUse" color-interpolation-filters="sRGB">
<feFlood flood-opacity="0" result="BackgroundImageFix"/>
<feColorMatrix in="SourceAlpha" type="matrix" values="0 0 0 0 0 0 0 0 0 0 0 0 0 0 0 0 0 0 127 0" result="hardAlpha"/>
<feOffset dy="5"/>
<feGaussianBlur stdDeviation="4"/>
<feComposite in2="hardAlpha" operator="out"/>
<feColorMatrix type="matrix" values="0 0 0 0 0 0 0 0 0 0 0 0 0 0 0 0 0 0 0.25 0"/>
<feBlend mode="normal" in2="BackgroundImageFix" result="effect1_dropShadow_85_26"/>
<feBlend mode="normal" in="SourceGraphic" in2="effect1_dropShadow_85_26" result="shape"/>
</filter>
<filter id="filter2_d_85_26" x="66.5745" y="31.6808" width="990.145" height="996.249" filterUnits="userSpaceOnUse" color-interpolation-filters="sRGB">
<feFlood flood-opacity="0" result="BackgroundImageFix"/>
<feColorMatrix in="SourceAlpha" type="matrix" values="0 0 0 0 0 0 0 0 0 0 0 0 0 0 0 0 0 0 127 0" result="hardAlpha"/>
<feOffset dy="5"/>
<feGaussianBlur stdDeviation="4"/>
<feComposite in2="hardAlpha" operator="out"/>
<feColorMatrix type="matrix" values="0 0 0 0 0 0 0 0 0 0 0 0 0 0 0 0 0 0 0.25 0"/>
<feBlend mode="normal" in2="BackgroundImageFix" result="effect1_dropShadow_85_26"/>
<feBlend mode="normal" in="SourceGraphic" in2="effect1_dropShadow_85_26" result="shape"/>
</filter>
<clipPath id="clip0_85_26">
<path d="M0 0H576V566C576 583.673 561.673 598 544 598H0V0Z" fill="white"/>
</clipPath>
</defs>
</svg>
